<?xml version="1.0"?><svg xmlns="http://www.w3.org/2000/svg"  viewBox="0 0 30 30" width="60px" height="60px">    <path d="M 19.292969 4 L 12.638672 4.0371094 C 12.638672 4.0371094 13.323313 4.166875 13.820312 5.046875 L 16.607422 9.984375 L 14.730469 11.046875 L 21.1875 11.992188 L 23.574219 6.0507812 L 21.832031 7.0332031 L 20.572266 4.8027344 C 20.323266 4.3627344 19.905969 4.028 19.292969 4 z M 10.162109 5.0039062 C 9.2992344 4.9392812 8.3065938 5.2256875 7.5585938 6.2421875 L 7.4746094 6.3359375 L 6.6679688 7.6757812 L 11.818359 10.714844 L 13.3125 8.2441406 L 11.986328 5.8691406 C 11.757828 5.4831406 11.024984 5.0685313 10.162109 5.0039062 z M 9.0722656 11.3125 L 2.7421875 12.277344 L 4.4746094 13.277344 L 3.1933594 15.496094 C 2.9403594 15.934094 2.8653438 16.465812 3.1523438 17.007812 L 6.5664062 22.71875 C 6.5664062 22.71875 6.3309375 22.0625 6.8359375 21.1875 L 9.6699219 16.277344 L 11.539062 17.355469 L 9.0722656 11.3125 z M 25.535156 11.888672 L 20.580078 14.757812 L 22.435547 17.998047 L 24.855469 17.998047 C 25.751469 17.979047 27.743984 16.262937 26.708984 13.960938 L 26.669922 13.841797 L 25.535156 11.888672 z M 19 17.84375 L 15 23 L 19 28 L 19 26 L 21.5625 26 C 22.0685 26 22.565625 25.80025 22.890625 25.28125 L 26.130859 19.46875 C 26.130859 19.46875 25.680922 20 24.669922 20 L 19 20 L 19 17.84375 z M 9.8457031 20 L 8.4746094 22.349609 C 8.0416094 23.135609 8.535875 25.719609 11.046875 25.974609 L 11.167969 26 L 13 25.980469 L 13 20 L 9.8457031 20 z"/></svg>